<svg
  width="16"
  height="16"
  viewBox="0 0 16 16"
  fill="none"
  xmlns="http://www.w3.org/2000/svg"
>
  <path
    fill-rule="evenodd"
    clip-rule="evenodd"
    d="M13.25 2C13.051 2 12.8603 2.07902 12.7196 2.21967C12.579 2.36032 12.5 2.55109 12.5 2.75V9.25H4.55995L5.52995 8.28C5.66243 8.13783 5.73455 7.94978 5.73113 7.75548C5.7277 7.56118 5.64899 7.37579 5.51157 7.23838C5.37416 7.10097 5.18877 7.02225 4.99447 7.01883C4.80017 7.0154 4.61213 7.08752 4.46995 7.22L2.21995 9.47C2.0795 9.61063 2.00061 9.80125 2.00061 10C2.00061 10.1988 2.0795 10.3894 2.21995 10.53L4.46995 12.78C4.61213 12.9125 4.80017 12.9846 4.99447 12.9812C5.18877 12.9777 5.37416 12.899 5.51157 12.7616C5.64899 12.6242 5.7277 12.4388 5.73113 12.2445C5.73455 12.0502 5.66243 11.8622 5.52995 11.72L4.55995 10.75H13.25C13.4489 10.75 13.6396 10.671 13.7803 10.5303C13.9209 10.3897 14 10.1989 14 10V2.75C14 2.55109 13.9209 2.36032 13.7803 2.21967C13.6396 2.07902 13.4489 2 13.25 2Z"
    fill="#0284C7"
  />
</svg>
